<svg xmlns="http://www.w3.org/2000/svg" version="1.1" xmlns:xlink="http://www.w3.org/1999/xlink" width="512" height="512" x="0" y="0" viewBox="0 0 682.667 682.667" style="enable-background:new 0 0 512 512" xml:space="preserve" class=""><g><defs><clipPath id="a" clipPathUnits="userSpaceOnUse"><path d="M0 512h512V0H0Z" fill="#000000" opacity="1" data-original="#000000"></path></clipPath></defs><g clip-path="url(#a)" transform="matrix(1.33333 0 0 -1.33333 0 682.667)"><path d="M0 0h-120.791c-8.832 0-15.992-7.16-15.992-15.992v-69.362c0-8.833 7.16-15.992 15.992-15.992h.782a6.053 6.053 0 0 0 6.052-6.052v-20.246c0-3.174 3.689-4.919 6.144-2.906l33.925 27.831a6.054 6.054 0 0 0 3.838 1.373H0c8.832 0 15.992 7.159 15.992 15.992v69.362C15.992-7.16 8.832 0 0 0" style="fill-opacity:1;fill-rule:nonzero;stroke:none" transform="translate(252.311 511.169)" fill="#f7d4ad" data-original="#f7d4ad"></path><path d="M0 0h120.791c8.832 0 15.992-7.16 15.992-15.992v-72.111c0-8.832-7.16-15.992-15.992-15.992h-.782a6.052 6.052 0 0 1-6.052-6.051v-20.247c0-3.173-3.689-4.919-6.144-2.906l-33.925 27.832a6.053 6.053 0 0 1-3.838 1.372H0c-8.832 0-15.992 7.16-15.992 15.992v72.111C-15.992-7.16-8.832 0 0 0" style="fill-opacity:1;fill-rule:nonzero;stroke:none" transform="translate(254.921 460.001)" fill="#ecbd83" data-original="#ecbd83"></path><path d="M0 0h-85.181a7.726 7.726 0 1 1 0-15.452H0A7.726 7.726 0 1 1 0 0" style="fill-opacity:1;fill-rule:nonzero;stroke:none" transform="translate(231.515 486.629)" fill="#e2a876" data-original="#e2a876"></path><path d="M0 0h-55.639a7.726 7.726 0 1 1 0-15.452H0A7.726 7.726 0 1 1 0 0" style="fill-opacity:1;fill-rule:nonzero;stroke:none" transform="translate(201.973 453.19)" fill="#e2a876" data-original="#e2a876"></path><path d="M0 0h-85.182a7.726 7.726 0 1 1 0-15.452H0A7.726 7.726 0 1 1 0 0" style="fill-opacity:1;fill-rule:nonzero;stroke:none" transform="translate(356.402 433.056)" fill="#e2a876" data-original="#e2a876"></path><path d="M0 0h-55.64a7.726 7.726 0 1 1 0-15.452H0A7.726 7.726 0 1 1 0 0" style="fill-opacity:1;fill-rule:nonzero;stroke:none" transform="translate(326.86 399.617)" fill="#e2a876" data-original="#e2a876"></path><path d="M0 0h-285.939c-10.725 0-19.419 8.694-19.419 19.419v9.23H19.419v-9.23C19.419 8.694 10.725 0 0 0" style="fill-opacity:1;fill-rule:nonzero;stroke:none" transform="translate(397.311 201.534)" fill="#7c5757" data-original="#7c5757"></path><path d="M0 0a7.724 7.724 0 0 1-9.172 5.938 7.726 7.726 0 0 1-5.938-9.171L8.679-114.421a7.728 7.728 0 0 1 9.172-5.939 7.726 7.726 0 0 1 5.938 9.172z" style="fill-opacity:1;fill-rule:nonzero;stroke:none" transform="translate(101.577 121.363)" fill="#dad8db" data-original="#dad8db"></path><path d="M0 0a7.727 7.727 0 0 1-9.172-5.938l-23.789-111.188a7.726 7.726 0 0 1 7.563-9.345 7.73 7.73 0 0 1 7.547 6.111L5.938-9.172A7.726 7.726 0 0 1 0 0" style="fill-opacity:1;fill-rule:nonzero;stroke:none" transform="translate(33.184 127.302)" fill="#dad8db" data-original="#dad8db"></path><path d="M0 0h-105.168c4.241-12.569 12.854-23.114 24.029-29.833 7.329-4.408 11.961-12.188 11.961-20.741v-142.405h31.848v141.552c0 8.758 4.83 16.693 12.417 21.067C-13.308-23.67-4.353-12.899 0 0" style="fill-opacity:1;fill-rule:nonzero;stroke:none" transform="translate(306.926 201.537)" fill="#dad8db" data-original="#dad8db"></path><path d="M0 0h-70.432a7.726 7.726 0 1 1 0-15.452H0A7.726 7.726 0 1 1 0 0" style="fill-opacity:1;fill-rule:nonzero;stroke:none" transform="translate(289.558 16.285)" fill="#c7c5c9" data-original="#c7c5c9"></path><path d="M0 0h-101.942c-6.684 0-12.103 5.418-12.103 12.103v16.546H12.103V12.103C12.103 5.418 6.684 0 0 0" style="fill-opacity:1;fill-rule:nonzero;stroke:none" transform="translate(114.07 119.747)" fill="#ffc269" data-original="#ffc269"></path><path d="M0 0v87.54c0 14.139 5.614 27.7 15.608 37.703 14.379 14.389 38.793 10.915 47.516-7.463l20.64-35.903L79.617 0" style="fill-opacity:1;fill-rule:nonzero;stroke:none" transform="translate(14.286 201.534)" fill="#b2e59f" data-original="#b2e59f"></path><path d="M0 0h-16.429a6.196 6.196 0 0 0-6.141 5.369l-18.128 134.497h-77.16c-17.251 0-31.236 13.985-31.236 31.236v21.874h118.123c20.527 0 37.168-16.641 37.168-37.168V6.197A6.197 6.197 0 0 0 0 0" style="fill-opacity:1;fill-rule:nonzero;stroke:none" transform="translate(163.38 8.559)" fill="#5d5260" data-original="#5d5260" class=""></path><path d="m0 0 35.784-38.421h87.957c0 15.982-11.557 29.619-27.322 32.241L49.458 1.63 21.241 50.71c-11.24 4.727-23.561 4.973-30.365-1.088C-19.018 40.807-18.875 17.197 0 0" style="fill-opacity:1;fill-rule:nonzero;stroke:none" transform="translate(56.169 268.604)" fill="#95d5a4" data-original="#95d5a4"></path><path d="M0 0v-14.093c0-15.163-12.279-27.443-27.433-27.443-9.178 0-17.296 4.502-22.282 11.414a26.937 26.937 0 0 0-3.008 5.347 27.455 27.455 0 0 0-2.153 10.682V0c0 15.153 12.29 27.443 27.443 27.443 7.572 0 14.433-3.07 19.398-8.035A27.31 27.31 0 0 0-1.597 9.22 27.045 27.045 0 0 0 0 0" style="fill-opacity:1;fill-rule:nonzero;stroke:none" transform="translate(71.085 376.897)" fill="#f7d4ad" data-original="#f7d4ad"></path><path d="m0 0-.608.113-25.063-10.816a5.034 5.034 0 0 1-2.844-3.204l-1.02-3.441s-1.967-16.307-16.4-21.344a26.721 26.721 0 0 0-2.183-.65 26.915 26.915 0 0 0-3.008 5.347 27.46 27.46 0 0 0-2.153 10.683V-9.22c0 15.154 12.289 27.443 27.443 27.443 7.571 0 14.432-3.07 19.398-8.035A27.293 27.293 0 0 0 0 0" style="fill-opacity:1;fill-rule:nonzero;stroke:none" transform="translate(69.488 386.117)" fill="#6e4848" data-original="#6e4848"></path><path d="M0 0c0-8.574-6.951-15.525-15.525-15.525-8.574 0-15.525 6.951-15.525 15.525 0 8.574 6.951 15.525 15.525 15.525C-6.951 15.525 0 8.574 0 0" style="fill-opacity:1;fill-rule:nonzero;stroke:none" transform="translate(498.246 403.408)" fill="#633c3e" data-original="#633c3e"></path><path d="m0 0-23.789 111.188a7.723 7.723 0 0 1-9.171 5.938 7.726 7.726 0 0 1-5.939-9.171L-15.11-3.233a7.728 7.728 0 0 1 9.172-5.939A7.726 7.726 0 0 1 0 0" style="fill-opacity:1;fill-rule:nonzero;stroke:none" transform="translate(511.802 10.175)" fill="#dad8db" data-original="#dad8db"></path><path d="M0 0a7.726 7.726 0 0 1-9.172-5.938L-32.96-117.126a7.726 7.726 0 0 1 7.563-9.345 7.73 7.73 0 0 1 7.547 6.111L5.938-9.172A7.726 7.726 0 0 1 0 0" style="fill-opacity:1;fill-rule:nonzero;stroke:none" transform="translate(419.62 127.302)" fill="#dad8db" data-original="#dad8db"></path><path d="M0 0h101.942c6.684 0 12.103 5.418 12.103 12.103v16.546H-12.103V12.103C-12.103 5.418-6.685 0 0 0" style="fill-opacity:1;fill-rule:nonzero;stroke:none" transform="translate(397.955 119.747)" fill="#ffc269" data-original="#ffc269"></path><path d="M0 0v-12.306h112.947v-16.343h1.098c6.684 0 12.103 5.419 12.103 12.103V0Z" style="fill-opacity:1;fill-rule:nonzero;stroke:none" transform="translate(0 148.395)" fill="#ff8b59" data-original="#ff8b59"></path><path d="M0 0v-12.306h112.947v-16.343h1.098c6.684 0 12.102 5.419 12.102 12.103V0Z" style="fill-opacity:1;fill-rule:nonzero;stroke:none" transform="translate(385.827 148.395)" fill="#ff8b59" data-original="#ff8b59"></path><path d="M0 0v87.54c0 14.139-5.614 27.7-15.608 37.703-14.379 14.389-38.793 10.915-47.515-7.463l-20.641-35.903L-79.616 0" style="fill-opacity:1;fill-rule:nonzero;stroke:none" transform="translate(497.739 201.534)" fill="#b8b6ff" data-original="#b8b6ff"></path><path d="M0 0h16.428a6.197 6.197 0 0 1 6.142 5.369l18.128 134.497h77.159c17.251 0 31.236 13.985 31.236 31.236v21.874H30.971c-20.528 0-37.168-16.641-37.168-37.168V6.197A6.196 6.196 0 0 1 0 0" style="fill-opacity:1;fill-rule:nonzero;stroke:none" transform="translate(348.646 8.559)" fill="#5d5260" data-original="#5d5260" class=""></path><path d="m0 0-35.784-38.421h-87.957c0 15.982 11.556 29.619 27.322 32.241l46.961 7.81 30.147 52.437c2.961.787 16.267 4.016 24.647-2.991C15.786 42.34 16.567 19.376 0 0" style="fill-opacity:1;fill-rule:nonzero;stroke:none" transform="translate(455.857 268.604)" fill="#a09eef" data-original="#a09eef"></path><path d="M0 0v-14.092c0-5.285-1.494-10.22-4.079-14.402-4.821-7.819-13.475-13.042-23.354-13.042-15.153 0-27.443 12.29-27.443 27.444V0c0 2.37.299 4.667.865 6.861v.011a27.456 27.456 0 0 0 7.17 12.536c4.976 4.966 11.837 8.035 19.408 8.035C-12.279 27.443 0 15.164 0 0" style="fill-opacity:1;fill-rule:nonzero;stroke:none" transform="translate(489.492 377.206)" fill="#f7d4ad" data-original="#f7d4ad"></path><path d="M0 0v-14.092c0-5.285-1.494-10.22-4.079-14.402a23.5 23.5 0 0 0-7.778 3.08C-21.582-19.377-30.07-8.437-30.07-8.437l-1.03 3.441a5.004 5.004 0 0 1-2.843 3.204l-20.068 8.653v.011a27.456 27.456 0 0 0 7.17 12.536c4.976 4.966 11.837 8.035 19.408 8.035C-12.279 27.443 0 15.164 0 0" style="fill-opacity:1;fill-rule:nonzero;stroke:none" transform="translate(489.492 377.206)" fill="#6e4848" data-original="#6e4848"></path></g></g></svg>