<svg xmlns="http://www.w3.org/2000/svg" version="1.1" xmlns:xlink="http://www.w3.org/1999/xlink" width="512" height="512" x="0" y="0" viewBox="0 0 64 64" style="enable-background:new 0 0 512 512" xml:space="preserve" class=""><g><path fill="#ffc477" d="M34 16v4l-2 1-2-1v-4z" opacity="1" data-original="#ffc477"></path><path fill="#57565c" d="M32 39v22h6V39zM26 39v22h6V39z" opacity="1" data-original="#57565c"></path><path fill="#ff5023" d="m57.7 51.87 3.5 6.06-3.6-.23-1.6 3.23-2.9-5.03a6.01 6.01 0 0 0 4.6-4.03z" opacity="1" data-original="#ff5023" class=""></path><path fill="#00ccb3" d="M61 5v8a2.006 2.006 0 0 1-2 2H43l4-4V5a2.006 2.006 0 0 1 2-2h10a2.006 2.006 0 0 1 2 2z" opacity="1" data-original="#00ccb3"></path><path fill="#ffd422" d="M58 50a5.815 5.815 0 0 1-.3 1.87 6.01 6.01 0 0 1-4.6 4.03 6.1 6.1 0 0 1-2.2 0 6.01 6.01 0 0 1-4.6-4.03A5.815 5.815 0 0 1 46 50a6 6 0 0 1 12 0z" opacity="1" data-original="#ffd422"></path><circle cx="52" cy="50" r="3" fill="#ff5023" opacity="1" data-original="#ff5023" class=""></circle><path fill="#ff5023" d="M50.9 55.9 48 60.93l-1.6-3.23-3.6.23 3.5-6.06a6.01 6.01 0 0 0 4.6 4.03z" opacity="1" data-original="#ff5023" class=""></path><path fill="#ffc477" d="M42 35v2a2.006 2.006 0 0 1-2 2h-2v-4z" opacity="1" data-original="#ffc477"></path><path fill="#e6e7e8" d="M38 35v4h-6v-1l2-3-1-10 .87-2.6L36 24l1.41-3.54a8.024 8.024 0 0 1 1.49.68l.19.11A5.837 5.837 0 0 1 42 26.3V35z" opacity="1" data-original="#e6e7e8"></path><path fill="#ffb655" d="M38.89 10.34A2 2 0 0 1 37 13h-1.1a4.712 4.712 0 0 0 .1-1V9h.9a2.066 2.066 0 0 1 1.99 1.34z" opacity="1" data-original="#ffb655"></path><path fill="#3e3d42" d="M38.83 58.17a4.225 4.225 0 0 0-.83-.63A3.994 3.994 0 0 0 32 61h8a4.025 4.025 0 0 0-1.17-2.83z" opacity="1" data-original="#3e3d42" class=""></path><path fill="#d1d3d4" d="M37.41 20.46 36 24l-2.13-1.6L32 21l2-1h.66a8.532 8.532 0 0 1 2.75.46z" opacity="1" data-original="#d1d3d4"></path><path fill="#ffb655" d="M34 16v2.59a5.083 5.083 0 0 1-4 0V16z" opacity="1" data-original="#ffb655"></path><path fill="#57565c" d="M37 8v1h-1a3 3 0 0 1-3-3 3 3 0 0 1-3 3h-3V8a5 5 0 1 1 10 0z" opacity="1" data-original="#57565c"></path><path fill="#787680" d="m33 25 1 10-2 3-2-3 1-10zM33.87 22.4 33 25h-2l-.87-2.6L32 21z" opacity="1" data-original="#787680"></path><path fill="#e6e7e8" d="M26 35h-4v-8.6a6 6 0 0 1 3-5.2l.21-.12a7.35 7.35 0 0 1 1.37-.63L28 24l2.13-1.6L31 25l-1 10 2 3v1h-6z" opacity="1" data-original="#e6e7e8"></path><path fill="#d1d3d4" d="m32 21-1.87 1.4L28 24l-1.42-3.55a7.918 7.918 0 0 1 2.64-.45H30z" opacity="1" data-original="#d1d3d4"></path><path fill="#ffb655" d="M28.1 13H27a2 2 0 0 1-1.89-2.66A2.066 2.066 0 0 1 27.1 9h.9v3a4.712 4.712 0 0 0 .1 1z" opacity="1" data-original="#ffb655"></path><path fill="#3e3d42" d="M30.83 58.17a3.994 3.994 0 0 0-4.83-.63A3.98 3.98 0 0 0 24 61h8a4.025 4.025 0 0 0-1.17-2.83z" opacity="1" data-original="#3e3d42" class=""></path><path fill="#ffc477" d="M26 35v4h-2a2.006 2.006 0 0 1-2-2v-2z" opacity="1" data-original="#ffc477"></path><path fill="#ff9811" d="M20 52a8.014 8.014 0 0 1-2.34 5.66l-2.83-2.83A4 4 0 0 0 12 48v-4a8 8 0 0 1 8 8z" opacity="1" data-original="#ff9811"></path><path fill="#00ccb3" d="m14.83 54.83 2.83 2.83A8 8 0 0 1 4 52h4a4 4 0 0 0 6.83 2.83z" opacity="1" data-original="#00ccb3"></path><path fill="#ffd422" d="M17 12a5 5 0 0 1-3 4.58V18h-4v-1.42A5 5 0 1 1 17 12z" opacity="1" data-original="#ffd422"></path><path fill="#ee8700" d="M14 18v2a2.015 2.015 0 0 1-2 2 2.006 2.006 0 0 1-2-2v-2z" opacity="1" data-original="#ee8700"></path><path fill="#ffd422" d="M12 44v4a4 4 0 0 0-4 4H4a8 8 0 0 1 8-8z" opacity="1" data-original="#ffd422"></path><path fill="#ffc477" d="M36.9 13a5.044 5.044 0 0 1-2.9 3.59 5.083 5.083 0 0 1-4 0A5.044 5.044 0 0 1 27.1 13a4.712 4.712 0 0 1-.1-1V9h3a3 3 0 0 0 3-3 3 3 0 0 0 3 3h1v3a4.712 4.712 0 0 1-.1 1z" opacity="1" data-original="#ffc477"></path><path fill="#d1d3d4" d="M26 27h2v12h-2zM36 27h2v12h-2z" opacity="1" data-original="#d1d3d4"></path><path fill="#00b39d" d="M50 6h8v2h-8zM50 10h8v2h-8z" opacity="1" data-original="#00b39d"></path><g fill="#ff9811"><path d="M11 12h2v3h-2zM11 2h2v2h-2zM4.22 5.634 5.634 4.22l1.414 1.414-1.414 1.414zM2 11h2v2H2zM20 11h2v2h-2zM16.948 5.637l1.414-1.414 1.414 1.414-1.414 1.414z" fill="#ff9811" opacity="1" data-original="#ff9811"></path><path d="M10 11h4v2h-4z" fill="#ff9811" opacity="1" data-original="#ff9811"></path></g><path fill="#ee8700" d="M7 17h10v2H7z" opacity="1" data-original="#ee8700"></path><path fill="#ff9811" d="M19 31h-7a1 1 0 0 1-1-1v-5h2v4h6zM52 31h-7v-2h6v-4h2v5a1 1 0 0 1-1 1zM13 41h-2v-5a1 1 0 0 1 1-1h7v2h-6zM53 41h-2v-4h-6v-2h7a1 1 0 0 1 1 1z" opacity="1" data-original="#ff9811"></path></g></svg>